<svg width="48" height="48" viewBox="0 0 48 48" fill="none" xmlns="http://www.w3.org/2000/svg">
<path d="M13.8 40C12.3 40 10.975 39.4417 9.825 38.325C8.675 37.2083 8.05 35.85 7.95 34.25C6.71667 33.4833 5.75833 32.5083 5.075 31.325C4.39167 30.1417 4.05 28.85 4.05 27.45C4.05 25.7167 4.55833 24.1583 5.575 22.775C6.59167 21.3917 7.93333 20.5167 9.6 20.15L5.55 15.9L4.6 16.9C4.3 17.2333 3.94167 17.4 3.525 17.4C3.10833 17.4 2.75 17.2333 2.45 16.9C2.15 16.6 2 16.25 2 15.85C2 15.45 2.15 15.0833 2.45 14.75L6.5 10.55C6.8 10.25 7.15833 10.1 7.575 10.1C7.99167 10.1 8.35 10.25 8.65 10.55C8.95 10.8833 9.1 11.25 9.1 11.65C9.1 12.05 8.95 12.4 8.65 12.7L7.7 13.75L11.3 17.6L13.25 11.75C13.6167 10.65 14.2583 9.75 15.175 9.05C16.0917 8.35 17.1167 8 18.25 8H29.85C30.9833 8 32.0167 8.35 32.95 9.05C33.8833 9.75 34.5167 10.65 34.85 11.75L37.35 20.05C39.25 20.2167 40.8333 20.9917 42.1 22.375C43.3667 23.7583 44 25.45 44 27.45C44 28.85 43.6583 30.1417 42.975 31.325C42.2917 32.5083 41.3333 33.4833 40.1 34.25C40 35.85 39.375 37.2083 38.225 38.325C37.075 39.4417 35.75 40 34.25 40C32.85 40 31.625 39.5167 30.575 38.55C29.525 37.5833 28.8667 36.4 28.6 35H19.45C19.1833 36.4 18.525 37.5833 17.475 38.55C16.425 39.5167 15.2 40 13.8 40ZM13.7 19.95H22.45V11H18.25C17.75 11 17.3167 11.1583 16.95 11.475C16.5833 11.7917 16.3167 12.1833 16.15 12.65L13.7 19.95ZM25.45 19.95H34.2L31.95 12.65C31.7833 12.1833 31.5167 11.7917 31.15 11.475C30.7833 11.1583 30.35 11 29.85 11H25.45V19.95ZM19.45 32H28.6C28.9667 30.8 29.6833 29.8333 30.75 29.1C31.8167 28.3667 32.9833 28 34.25 28C35.3167 28 36.3 28.2833 37.2 28.85C38.1 29.4167 38.8333 30.15 39.4 31.05C39.9667 30.6167 40.375 30.075 40.625 29.425C40.875 28.775 41 28.1167 41 27.45C41 26.1833 40.5667 25.1167 39.7 24.25C38.8333 23.3833 37.7667 22.95 36.5 22.95H11.55C10.2833 22.95 9.21667 23.3833 8.35 24.25C7.48333 25.1167 7.05 26.1833 7.05 27.45C7.05 28.1167 7.18333 28.775 7.45 29.425C7.71667 30.075 8.11667 30.6167 8.65 31.05C9.18333 30.0833 9.90833 29.3333 10.825 28.8C11.7417 28.2667 12.7333 28 13.8 28C15.0667 28 16.2333 28.3667 17.3 29.1C18.3667 29.8333 19.0833 30.8 19.45 32V32ZM13.8 37C14.6667 37 15.3833 36.7083 15.95 36.125C16.5167 35.5417 16.8 34.8333 16.8 34C16.8 33.1333 16.5167 32.4167 15.95 31.85C15.3833 31.2833 14.6667 31 13.8 31C12.9667 31 12.2583 31.2833 11.675 31.85C11.0917 32.4167 10.8 33.1333 10.8 34C10.8 34.8333 11.0917 35.5417 11.675 36.125C12.2583 36.7083 12.9667 37 13.8 37V37ZM34.25 37C35.1167 37 35.8333 36.7083 36.4 36.125C36.9667 35.5417 37.25 34.8333 37.25 34C37.25 33.1333 36.9667 32.4167 36.4 31.85C35.8333 31.2833 35.1167 31 34.25 31C33.4167 31 32.7083 31.2833 32.125 31.85C31.5417 32.4167 31.25 33.1333 31.25 34C31.25 34.8333 31.5417 35.5417 32.125 36.125C32.7083 36.7083 33.4167 37 34.25 37Z" fill="white"/>
</svg>
